#!OML:ASF E:/inclinewalkrobotboard/Project1/Captureday1/Session1/subject1.ASF
:FULLY-SPECIFIED
:DEGREES
197
root 0 0 0 -2.143174519715452 -3.7949224384367755 0.4917083293157037
lowerback 7.608191517813972 1.578022036260082 -2.5297957477211552
upperback 1.8538970009642664 1.955750763076379 -0.05026903216552192
thorax -2.3806433657585973 1.027894991134362 1.2558195906237097
lowerneck -9.363059223283773 -5.519318676972167 -6.393984876016436
upperneck 31.06137564465894 -8.635617819996757 6.06659098041951
head 11.620734697556076 -3.9383314035022225 2.0210233374009157
rclavicle -1.4030572863840052E-15 1.3838346665787876E-15
rhumerus -8.191361583364422 1.7004864743505275 -79.58366315318355
rradius 48.68790389171547
rwrist -20.649325057355693
rhand -42.04667640770494 16.234542066239857
rfingers 7.125019999999942
rthumb -14.884093922637357 -13.174679823826839
lclavicle -5.756688967396855E-15 9.112987628680697E-16
lhumerus -30.80878566745633 11.836925721409509 77.34051486812923
lradius 24.87315399569261
lwrist -4.701530207797133
lhand -24.379758717966663 21.82674726457547
lfingers 7.125019999999955
lthumb 2.1132940665304765 51.76760571107962
rfemur -8.12738323431335 7.893782302583344 33.36126317439975
rtibia 34.530766250569904
rfoot -15.585113013271773 -9.669457721276562
rtoes 5.08886161532795
lfemur -28.02088722929397 1.72091925016605 -15.27744723734933
ltibia 44.26573327137007
lfoot -3.0974191591481013 -7.1673865610954035
ltoes -3.7503486930240104
198
root 0 0 0 -2.1676882057393287 -3.8345743389380043 0.48696523686713916
lowerback 7.593369635576477 1.564876892719954 -2.525711486791489
upperback 1.8319697222541422 1.939381289491237 -0.04288905677890076
thorax -2.3953988046833756 1.0191879554986076 1.264214551508923
lowerneck -9.392246649510918 -5.507989042884688 -6.365369042812742
upperneck 31.134557686719038 -8.626434943516246 6.016620805259631
head 11.64191926073993 -3.9334830112857495 2.0013509210080995
rclavicle -1.4202643336982842E-15 1.3265028433118645E-15
rhumerus -7.884633059310367 1.3815060058935384 -79.48483925173703
rradius 48.41429155444458
rwrist -20.575160220425524
rhand -42.03138104256701 16.286261452881657
rfingers 7.125019999999941
rthumb -14.867521458956388 -13.121606553918339
lclavicle -5.762178586377633E-15 7.770526018755176E-16
lhumerus -30.693945892805587 11.740806933641393 77.53689461566137
lradius 24.932914430364466
lwrist -4.615675396265949
lhand -24.3231685654701 21.84518981607891
lfingers 7.125019999999954
lthumb 2.167398712490915 51.785381134156204
rfemur -11.427879117260996 7.737240965629428 32.99271199577581
rtibia 36.43941341198751
rfoot -14.187295166366349 -9.790164372050294
rtoes 5.689778147378437
lfemur -26.656285317172635 2.1304875645419177 -15.65959975899484
ltibia 47.149087296807735
lfoot -2.8756103116854934 -7.896586240434287
ltoes -4.029809274873539
199
root 0 0 0 -2.1997278159716576 -3.879151925976459 0.4812557647402657
lowerback 7.566865172371769 1.5512126270415112 -2.5194194629044597
upperback 1.8060335366258555 1.9227066907423231 -0.03600794902694626
thorax -2.4072458621415134 1.0102566063953922 1.2708593176583851
lowerneck -9.42104248646169 -5.494855641026263 -6.3348509281553405
upperneck 31.21471469638283 -8.616527339353748 5.957036835482872
head 11.66518657601124 -3.9280908592025896 1.977580622442845
rclavicle -1.5316498831398019E-15 1.2893938999204541E-15
rhumerus -7.634001043024938 1.1456130842209635 -79.39444237836874
rradius 48.25882458595764
rwrist -20.53909682497428
rhand -42.006619266558516 16.289914060655676
rfingers 7.12501999999994
rthumb -14.843021817948902 -13.117291782094448
lclavicle -5.815877755846819E-15 6.595743427268385E-16
lhumerus -30.57517198354473 11.631411450332442 77.74380635702559
lradius 24.988224404410882
lwrist -4.536499769042568
lhand -24.247189286361078 21.871221596873642
lfingers 7.125019999999953
lthumb 2.2400951078821327 51.81051342966637
rfemur -14.020925598143652 7.592575372317185 32.77476207108705
rtibia 37.883670642519355
rfoot -13.119883019256099 -9.779835844067518
rtoes 6.291276324158938
lfemur -25.452516361575984 2.555577706084552 -15.851502609747481
ltibia 50.3796336059904
lfoot -2.6966463131228053 -8.37489448538353
ltoes -4.4971862715107855
200
root 0 0 0 -2.2356235513646734 -3.9196069912684703 0.47499332847661674
lowerback 7.529152178770907 1.5398765993342438 -2.5103317861032273
upperback 1.7792302871296641 1.9095305084399794 -0.030860539082841698
thorax -2.4130672161215876 1.0030563530852878 1.2735758009956166
lowerneck -9.446028969877679 -5.481073668373337 -6.306420243952724
upperneck 31.28943905837981 -8.606315780208417 5.894643606946163
head 11.687237923331233 -3.922403174392516 1.9524887578160803
rclavicle -1.7317128221796513E-15 1.2799522658006609E-15
rhumerus -7.520183543289463 1.0726356712524154 -79.33938229716045
rradius 48.286214112999
rwrist -20.562052939947232
rhand -41.976171469138436 16.229340171755446
rfingers 7.125019999999939
rthumb -14.814773322226547 -13.178239831070801
lclavicle -5.903275939687228E-15 5.799145310789664E-16
lhumerus -30.471250558896656 11.523169499525642 77.9300451722733
lradius 25.028040904532432
lwrist -4.479718135140512
lhand -24.158390808197872 21.90274716056299
lfingers 7.125019999999952
lthumb 2.3251602856299303 51.84098821762199
rfemur -15.416157392780567 7.503409814266845 32.72221333101525
rtibia 38.44519546208954
rfoot -12.639256147348068 -9.6743606442907
rtoes 6.818846328890007
lfemur -24.70438141671061 2.94718326795107 -15.730295025568054
ltibia 53.574958305975194
lfoot -2.6449514272722663 -8.409573439927252
ltoes -5.110762398680199
